<mxfile host="app.diagrams.net" modified="2023-04-15T15:42:39.849Z" agent="Mozilla/5.0 (Windows NT 10.0; Win64; x64) AppleWebKit/537.36 (KHTML, like Gecko) Chrome/112.0.0.0 Safari/537.36" etag="MOFwEtF1YwHC1yTsz4wG" version="21.1.5" type="device">
  <diagram id="kgpKYQtTHZ0yAKxKKP6v" name="Page-1">
    <mxGraphModel dx="1195" dy="618" grid="1" gridSize="10" guides="1" tooltips="1" connect="1" arrows="1" fold="1" page="1" pageScale="1" pageWidth="850" pageHeight="1100" math="0" shadow="0">
      <root>
        <mxCell id="0" />
        <mxCell id="1" parent="0" />
        <mxCell id="iYX6wO-W4umorDJC_DnO-2" value="" style="rounded=0;whiteSpace=wrap;html=1;fontSize=9;" parent="1" vertex="1">
          <mxGeometry x="120" y="900" width="260" height="70" as="geometry" />
        </mxCell>
        <mxCell id="iYX6wO-W4umorDJC_DnO-1" value="" style="rounded=0;whiteSpace=wrap;html=1;fontSize=9;" parent="1" vertex="1">
          <mxGeometry x="120" y="830" width="260" height="70" as="geometry" />
        </mxCell>
        <mxCell id="RpNmk9PzL1BeqB-_7wdb-41" value="" style="rounded=0;whiteSpace=wrap;html=1;fontSize=9;" parent="1" vertex="1">
          <mxGeometry x="120" y="560" width="260" height="70" as="geometry" />
        </mxCell>
        <mxCell id="RpNmk9PzL1BeqB-_7wdb-37" value="" style="rounded=0;whiteSpace=wrap;html=1;fontSize=9;" parent="1" vertex="1">
          <mxGeometry x="120" y="490" width="260" height="70" as="geometry" />
        </mxCell>
        <mxCell id="RpNmk9PzL1BeqB-_7wdb-14" value="" style="rounded=0;whiteSpace=wrap;html=1;fontSize=9;" parent="1" vertex="1">
          <mxGeometry x="120" y="285" width="260" height="60" as="geometry" />
        </mxCell>
        <mxCell id="RpNmk9PzL1BeqB-_7wdb-12" value="" style="rounded=0;whiteSpace=wrap;html=1;" parent="1" vertex="1">
          <mxGeometry x="120" y="225" width="260" height="60" as="geometry" />
        </mxCell>
        <mxCell id="RpNmk9PzL1BeqB-_7wdb-25" style="edgeStyle=orthogonalEdgeStyle;rounded=0;orthogonalLoop=1;jettySize=auto;html=1;dashed=1;strokeColor=default;fontSize=9;" parent="1" source="3nuBFxr9cyL0pnOWT2aG-1" edge="1">
          <mxGeometry relative="1" as="geometry">
            <mxPoint x="170" y="1070" as="targetPoint" />
            <Array as="points">
              <mxPoint x="170" y="1063" />
            </Array>
          </mxGeometry>
        </mxCell>
        <mxCell id="3nuBFxr9cyL0pnOWT2aG-1" value="Bablechat" style="shape=umlLifeline;perimeter=lifelinePerimeter;container=1;collapsible=0;recursiveResize=0;rounded=0;shadow=0;strokeWidth=1;" parent="1" vertex="1">
          <mxGeometry x="120" y="80" width="100" height="300" as="geometry" />
        </mxCell>
        <mxCell id="RpNmk9PzL1BeqB-_7wdb-6" value="Check if account exist" style="endArrow=classic;html=1;rounded=0;strokeColor=default;" parent="3nuBFxr9cyL0pnOWT2aG-1" target="3nuBFxr9cyL0pnOWT2aG-5" edge="1">
          <mxGeometry width="50" height="50" relative="1" as="geometry">
            <mxPoint x="50" y="120" as="sourcePoint" />
            <mxPoint x="100" y="70" as="targetPoint" />
          </mxGeometry>
        </mxCell>
        <mxCell id="RpNmk9PzL1BeqB-_7wdb-32" style="edgeStyle=orthogonalEdgeStyle;rounded=0;orthogonalLoop=1;jettySize=auto;html=1;dashed=1;strokeColor=default;fontSize=9;" parent="1" source="3nuBFxr9cyL0pnOWT2aG-5" edge="1">
          <mxGeometry relative="1" as="geometry">
            <mxPoint x="350" y="680" as="targetPoint" />
          </mxGeometry>
        </mxCell>
        <mxCell id="3nuBFxr9cyL0pnOWT2aG-5" value="Database" style="shape=umlLifeline;perimeter=lifelinePerimeter;container=1;collapsible=0;recursiveResize=0;rounded=0;shadow=0;strokeWidth=1;" parent="1" vertex="1">
          <mxGeometry x="300" y="80" width="100" height="300" as="geometry" />
        </mxCell>
        <mxCell id="RpNmk9PzL1BeqB-_7wdb-4" style="edgeStyle=orthogonalEdgeStyle;rounded=0;orthogonalLoop=1;jettySize=auto;html=1;dashed=1;strokeColor=default;" parent="1" source="RpNmk9PzL1BeqB-_7wdb-1" edge="1">
          <mxGeometry relative="1" as="geometry">
            <mxPoint x="65" y="1070" as="targetPoint" />
          </mxGeometry>
        </mxCell>
        <mxCell id="RpNmk9PzL1BeqB-_7wdb-1" value="" style="shape=umlActor;verticalLabelPosition=bottom;verticalAlign=top;html=1;outlineConnect=0;" parent="1" vertex="1">
          <mxGeometry x="50" y="70" width="30" height="60" as="geometry" />
        </mxCell>
        <mxCell id="RpNmk9PzL1BeqB-_7wdb-5" value="Input account" style="endArrow=classic;html=1;rounded=0;strokeColor=default;" parent="1" target="3nuBFxr9cyL0pnOWT2aG-1" edge="1">
          <mxGeometry width="50" height="50" relative="1" as="geometry">
            <mxPoint x="70" y="170" as="sourcePoint" />
            <mxPoint x="120" y="120" as="targetPoint" />
          </mxGeometry>
        </mxCell>
        <mxCell id="RpNmk9PzL1BeqB-_7wdb-7" value="Log in" style="endArrow=classic;html=1;rounded=0;strokeColor=default;entryX=0.53;entryY=0.575;entryDx=0;entryDy=0;entryPerimeter=0;dashed=1;" parent="1" source="3nuBFxr9cyL0pnOWT2aG-5" target="3nuBFxr9cyL0pnOWT2aG-1" edge="1">
          <mxGeometry width="50" height="50" relative="1" as="geometry">
            <mxPoint x="270" y="290" as="sourcePoint" />
            <mxPoint x="320" y="240" as="targetPoint" />
          </mxGeometry>
        </mxCell>
        <mxCell id="RpNmk9PzL1BeqB-_7wdb-13" value="&lt;font style=&quot;font-size: 9px;&quot;&gt;If account &lt;br&gt;exist&lt;br&gt;&lt;/font&gt;" style="text;html=1;strokeColor=none;fillColor=none;align=center;verticalAlign=middle;whiteSpace=wrap;rounded=0;" parent="1" vertex="1">
          <mxGeometry x="100" y="230" width="90" height="50" as="geometry" />
        </mxCell>
        <mxCell id="RpNmk9PzL1BeqB-_7wdb-15" value="User is not registered" style="endArrow=classic;html=1;rounded=0;dashed=1;strokeColor=default;fontSize=9;exitX=0.513;exitY=0.805;exitDx=0;exitDy=0;exitPerimeter=0;entryX=0.519;entryY=0.805;entryDx=0;entryDy=0;entryPerimeter=0;" parent="1" source="3nuBFxr9cyL0pnOWT2aG-5" target="3nuBFxr9cyL0pnOWT2aG-1" edge="1">
          <mxGeometry width="50" height="50" relative="1" as="geometry">
            <mxPoint x="180" y="270" as="sourcePoint" />
            <mxPoint x="230" y="220" as="targetPoint" />
          </mxGeometry>
        </mxCell>
        <mxCell id="RpNmk9PzL1BeqB-_7wdb-16" value="Else" style="text;html=1;strokeColor=none;fillColor=none;align=center;verticalAlign=middle;whiteSpace=wrap;rounded=0;fontSize=9;" parent="1" vertex="1">
          <mxGeometry x="115" y="300" width="60" height="30" as="geometry" />
        </mxCell>
        <mxCell id="RpNmk9PzL1BeqB-_7wdb-33" value="Sign up" style="endArrow=classic;html=1;rounded=0;strokeColor=default;fontSize=9;" parent="1" edge="1">
          <mxGeometry width="50" height="50" relative="1" as="geometry">
            <mxPoint x="70" y="395" as="sourcePoint" />
            <mxPoint x="170" y="395" as="targetPoint" />
          </mxGeometry>
        </mxCell>
        <mxCell id="RpNmk9PzL1BeqB-_7wdb-35" value="&lt;font style=&quot;font-size: 7px;&quot;&gt;Input new account details&lt;/font&gt;" style="endArrow=classic;html=1;rounded=0;strokeColor=default;fontSize=9;" parent="1" edge="1">
          <mxGeometry width="50" height="50" relative="1" as="geometry">
            <mxPoint x="70" y="460" as="sourcePoint" />
            <mxPoint x="170" y="460" as="targetPoint" />
          </mxGeometry>
        </mxCell>
        <mxCell id="RpNmk9PzL1BeqB-_7wdb-38" value="Check if account exists" style="endArrow=classic;html=1;rounded=0;strokeColor=default;fontSize=9;" parent="1" edge="1">
          <mxGeometry width="50" height="50" relative="1" as="geometry">
            <mxPoint x="170" y="480" as="sourcePoint" />
            <mxPoint x="350" y="480" as="targetPoint" />
          </mxGeometry>
        </mxCell>
        <mxCell id="RpNmk9PzL1BeqB-_7wdb-39" value="If account doesn&#39;t &lt;br&gt;exists" style="text;html=1;strokeColor=none;fillColor=none;align=center;verticalAlign=middle;whiteSpace=wrap;rounded=0;fontSize=9;" parent="1" vertex="1">
          <mxGeometry x="115" y="500" width="60" height="30" as="geometry" />
        </mxCell>
        <mxCell id="RpNmk9PzL1BeqB-_7wdb-40" value="Create account" style="endArrow=classic;html=1;rounded=0;strokeColor=default;fontSize=9;entryX=1;entryY=1;entryDx=0;entryDy=0;dashed=1;" parent="1" target="RpNmk9PzL1BeqB-_7wdb-39" edge="1">
          <mxGeometry width="50" height="50" relative="1" as="geometry">
            <mxPoint x="350" y="530.5925835503472" as="sourcePoint" />
            <mxPoint x="190" y="370" as="targetPoint" />
          </mxGeometry>
        </mxCell>
        <mxCell id="RpNmk9PzL1BeqB-_7wdb-42" value="Account already exists" style="endArrow=classic;html=1;rounded=0;dashed=1;strokeColor=default;fontSize=9;" parent="1" edge="1">
          <mxGeometry width="50" height="50" relative="1" as="geometry">
            <mxPoint x="350" y="590" as="sourcePoint" />
            <mxPoint x="170" y="590" as="targetPoint" />
          </mxGeometry>
        </mxCell>
        <mxCell id="RpNmk9PzL1BeqB-_7wdb-43" value="else" style="text;html=1;strokeColor=none;fillColor=none;align=center;verticalAlign=middle;whiteSpace=wrap;rounded=0;fontSize=9;" parent="1" vertex="1">
          <mxGeometry x="115" y="580" width="60" height="30" as="geometry" />
        </mxCell>
        <mxCell id="RpNmk9PzL1BeqB-_7wdb-44" value="&lt;font style=&quot;font-size: 6px;&quot;&gt;Request new account details&lt;/font&gt;" style="endArrow=classic;html=1;rounded=0;dashed=1;strokeColor=default;fontSize=9;" parent="1" edge="1">
          <mxGeometry width="50" height="50" relative="1" as="geometry">
            <mxPoint x="170" y="430" as="sourcePoint" />
            <mxPoint x="70" y="430" as="targetPoint" />
          </mxGeometry>
        </mxCell>
        <mxCell id="iYX6wO-W4umorDJC_DnO-7" value="" style="endArrow=classic;html=1;rounded=0;dashed=1;" parent="1" edge="1">
          <mxGeometry width="50" height="50" relative="1" as="geometry">
            <mxPoint x="65" y="770" as="sourcePoint" />
            <mxPoint x="170" y="770" as="targetPoint" />
          </mxGeometry>
        </mxCell>
        <mxCell id="iYX6wO-W4umorDJC_DnO-8" value="User sends chat" style="edgeLabel;html=1;align=center;verticalAlign=middle;resizable=0;points=[];" parent="iYX6wO-W4umorDJC_DnO-7" vertex="1" connectable="0">
          <mxGeometry x="-0.4667" relative="1" as="geometry">
            <mxPoint x="22" as="offset" />
          </mxGeometry>
        </mxCell>
        <mxCell id="iYX6wO-W4umorDJC_DnO-9" value="" style="endArrow=classic;html=1;rounded=0;" parent="1" edge="1">
          <mxGeometry width="50" height="50" relative="1" as="geometry">
            <mxPoint x="170" y="790" as="sourcePoint" />
            <mxPoint x="350" y="790" as="targetPoint" />
          </mxGeometry>
        </mxCell>
        <mxCell id="iYX6wO-W4umorDJC_DnO-10" value="Upload chat to Server" style="edgeLabel;html=1;align=center;verticalAlign=middle;resizable=0;points=[];" parent="iYX6wO-W4umorDJC_DnO-9" vertex="1" connectable="0">
          <mxGeometry x="0.2037" y="-2" relative="1" as="geometry">
            <mxPoint x="-28" y="-2" as="offset" />
          </mxGeometry>
        </mxCell>
        <mxCell id="iYX6wO-W4umorDJC_DnO-11" value="" style="endArrow=classic;html=1;rounded=0;" parent="1" edge="1">
          <mxGeometry width="50" height="50" relative="1" as="geometry">
            <mxPoint x="170" y="820" as="sourcePoint" />
            <mxPoint x="350" y="820" as="targetPoint" />
          </mxGeometry>
        </mxCell>
        <mxCell id="iYX6wO-W4umorDJC_DnO-12" value="Check if server has new entries" style="edgeLabel;html=1;align=center;verticalAlign=middle;resizable=0;points=[];fontSize=9;" parent="iYX6wO-W4umorDJC_DnO-11" vertex="1" connectable="0">
          <mxGeometry x="-0.3611" y="1" relative="1" as="geometry">
            <mxPoint x="33" as="offset" />
          </mxGeometry>
        </mxCell>
        <mxCell id="iYX6wO-W4umorDJC_DnO-13" value="&lt;font style=&quot;font-size: 10px;&quot;&gt;Server&lt;br&gt;has new entries&lt;/font&gt;" style="text;html=1;strokeColor=none;fillColor=none;align=center;verticalAlign=middle;whiteSpace=wrap;rounded=0;" parent="1" vertex="1">
          <mxGeometry x="115" y="850" width="60" height="30" as="geometry" />
        </mxCell>
        <mxCell id="iYX6wO-W4umorDJC_DnO-14" value="&lt;font style=&quot;font-size: 10px;&quot;&gt;Server&lt;br&gt;has no new entries&lt;/font&gt;" style="text;html=1;strokeColor=none;fillColor=none;align=center;verticalAlign=middle;whiteSpace=wrap;rounded=0;" parent="1" vertex="1">
          <mxGeometry x="115" y="920" width="60" height="30" as="geometry" />
        </mxCell>
        <mxCell id="iYX6wO-W4umorDJC_DnO-15" value="" style="endArrow=classic;html=1;rounded=0;entryX=1;entryY=0.5;entryDx=0;entryDy=0;dashed=1;dashPattern=8 8;" parent="1" target="iYX6wO-W4umorDJC_DnO-13" edge="1">
          <mxGeometry width="50" height="50" relative="1" as="geometry">
            <mxPoint x="350" y="865" as="sourcePoint" />
            <mxPoint x="400" y="820" as="targetPoint" />
          </mxGeometry>
        </mxCell>
        <mxCell id="iYX6wO-W4umorDJC_DnO-17" value="print new entries" style="edgeLabel;html=1;align=center;verticalAlign=middle;resizable=0;points=[];" parent="iYX6wO-W4umorDJC_DnO-15" vertex="1" connectable="0">
          <mxGeometry x="0.1048" relative="1" as="geometry">
            <mxPoint as="offset" />
          </mxGeometry>
        </mxCell>
        <mxCell id="iYX6wO-W4umorDJC_DnO-18" value="" style="endArrow=classic;html=1;rounded=0;entryX=1;entryY=0.5;entryDx=0;entryDy=0;dashed=1;" parent="1" target="iYX6wO-W4umorDJC_DnO-14" edge="1">
          <mxGeometry width="50" height="50" relative="1" as="geometry">
            <mxPoint x="350" y="935" as="sourcePoint" />
            <mxPoint x="400" y="890" as="targetPoint" />
          </mxGeometry>
        </mxCell>
        <mxCell id="iYX6wO-W4umorDJC_DnO-19" value="Do nothing" style="edgeLabel;html=1;align=center;verticalAlign=middle;resizable=0;points=[];" parent="iYX6wO-W4umorDJC_DnO-18" vertex="1" connectable="0">
          <mxGeometry x="-0.2" y="1" relative="1" as="geometry">
            <mxPoint x="-10" y="-1" as="offset" />
          </mxGeometry>
        </mxCell>
        <mxCell id="8ilWlTiWbd2qRDTlloy0-1" style="edgeStyle=orthogonalEdgeStyle;rounded=0;orthogonalLoop=1;jettySize=auto;html=1;dashed=1;strokeColor=default;fontSize=9;" edge="1" parent="1" source="8ilWlTiWbd2qRDTlloy0-2">
          <mxGeometry relative="1" as="geometry">
            <mxPoint x="350" y="1070" as="targetPoint" />
          </mxGeometry>
        </mxCell>
        <mxCell id="8ilWlTiWbd2qRDTlloy0-2" value="Server" style="shape=umlLifeline;perimeter=lifelinePerimeter;container=1;collapsible=0;recursiveResize=0;rounded=0;shadow=0;strokeWidth=1;" vertex="1" parent="1">
          <mxGeometry x="300" y="690" width="100" height="300" as="geometry" />
        </mxCell>
      </root>
    </mxGraphModel>
  </diagram>
</mxfile>
